<svg width="54" height="33" viewBox="0 0 54 33" fill="none" xmlns="http://www.w3.org/2000/svg">
<path d="M27 0C29.0886 0 31.0916 0.839222 32.5685 2.33305C34.0453 3.82687 34.875 5.85293 34.875 7.96552C34.875 10.0781 34.0453 12.1042 32.5685 13.598C31.0916 15.0918 29.0886 15.931 27 15.931C24.9114 15.931 22.9084 15.0918 21.4315 13.598C19.9547 12.1042 19.125 10.0781 19.125 7.96552C19.125 5.85293 19.9547 3.82687 21.4315 2.33305C22.9084 0.839222 24.9114 0 27 0ZM11.25 5.68965C12.51 5.68965 13.68 6.03103 14.6925 6.64552C14.355 9.9 15.3 13.1317 17.235 15.6579C16.11 17.8428 13.86 19.3448 11.25 19.3448C9.45979 19.3448 7.7429 18.6255 6.47703 17.3451C5.21116 16.0647 4.5 14.328 4.5 12.5172C4.5 10.7065 5.21116 8.96983 6.47703 7.68941C7.7429 6.40899 9.45979 5.68965 11.25 5.68965ZM42.75 5.68965C44.5402 5.68965 46.2571 6.40899 47.523 7.68941C48.7888 8.96983 49.5 10.7065 49.5 12.5172C49.5 14.328 48.7888 16.0647 47.523 17.3451C46.2571 18.6255 44.5402 19.3448 42.75 19.3448C40.14 19.3448 37.89 17.8428 36.765 15.6579C38.7 13.1317 39.645 9.9 39.3075 6.64552C40.32 6.03103 41.49 5.68965 42.75 5.68965ZM12.375 29.0172C12.375 24.3062 18.9225 20.4828 27 20.4828C35.0775 20.4828 41.625 24.3062 41.625 29.0172V33H12.375V29.0172ZM0 33V29.5862C0 26.4228 4.2525 23.76 10.0125 22.9862C8.685 24.5338 7.875 26.6731 7.875 29.0172V33H0ZM54 33H46.125V29.0172C46.125 26.6731 45.315 24.5338 43.9875 22.9862C49.7475 23.76 54 26.4228 54 29.5862V33Z" fill="#951B4A"/>
</svg>
