<svg width="57" height="29" viewBox="0 0 57 29" fill="none" xmlns="http://www.w3.org/2000/svg">
<path d="M33.0416 27.9094C33.5441 28.2733 34.1512 28.1589 34.8944 27.6182L42.1799 22.315L49.4653 27.6182C50.2085 28.1589 50.8261 28.2733 51.3181 27.9094C51.7996 27.5454 51.9148 26.9423 51.6217 26.0688L48.764 17.5629L56.1018 12.3221C56.845 11.7918 57.1381 11.2407 56.9392 10.6584C56.7508 10.0969 56.2065 9.79531 55.2644 9.80571L46.2622 9.8577L43.5093 1.3206C43.2266 0.436734 42.787 0 42.1799 0C41.5727 0 41.1331 0.436734 40.8505 1.3206L38.0975 9.8577L29.0953 9.80571C28.1637 9.79531 27.6089 10.0969 27.4205 10.6584C27.2216 11.2407 27.5147 11.7918 28.2579 12.3221L35.5957 17.5629L32.7485 26.0688C32.445 26.9423 32.5601 27.5454 33.0416 27.9094Z" fill="#E9BDC0"/>
<path d="M17.8417 27.9094C18.3441 28.2733 18.9512 28.1589 19.6944 27.6182L26.9799 22.315L34.2654 27.6182C35.0086 28.1589 35.6262 28.2733 36.1181 27.9094C36.5997 27.5454 36.7148 26.9423 36.4217 26.0688L33.564 17.5629L40.9019 12.3221C41.6451 11.7918 41.9381 11.2407 41.7393 10.6584C41.5508 10.0969 41.0065 9.79531 40.0644 9.80571L31.0623 9.8577L28.3093 1.3206C28.0267 0.436734 27.587 0 26.9799 0C26.3728 0 25.9332 0.436734 25.6505 1.3206L22.8975 9.8577L13.8954 9.80571C12.9638 9.79531 12.409 10.0969 12.2206 10.6584C12.0217 11.2407 12.3148 11.7918 13.058 12.3221L20.3958 17.5629L17.5486 26.0688C17.245 26.9423 17.3602 27.5454 17.8417 27.9094Z" fill="#AA4367"/>
<path d="M5.68176 27.9094C6.18421 28.2733 6.79133 28.1589 7.53453 27.6182L14.82 22.315L22.1055 27.6182C22.8487 28.1589 23.4663 28.2733 23.9582 27.9094C24.4397 27.5454 24.5549 26.9423 24.2618 26.0688L21.4041 17.5629L28.7419 12.3221C29.4851 11.7918 29.7782 11.2407 29.5793 10.6584C29.3909 10.0969 28.8466 9.79531 27.9045 9.80571L18.9024 9.8577L16.1494 1.3206C15.8668 0.436734 15.4271 0 14.82 0C14.2129 0 13.7732 0.436734 13.4906 1.3206L10.7376 9.8577L1.73547 9.80571C0.803852 9.79531 0.249068 10.0969 0.0606505 10.6584C-0.138234 11.2407 0.154859 11.7918 0.89806 12.3221L8.23586 17.5629L5.38867 26.0688C5.08511 26.9423 5.20025 27.5454 5.68176 27.9094Z" fill="#951B4A"/>
</svg>
