<svg width="16" height="16" viewBox="0 0 16 16" fill="none" xmlns="http://www.w3.org/2000/svg">
<path d="M8 0.25C10.059 0.255298 12.0317 1.07763 13.4848 2.53638C14.938 3.99512 15.7527 5.971 15.75 8.03C15.7431 10.041 14.9548 11.9706 13.5516 13.4111C12.1483 14.8516 10.2401 15.6903 8.23 15.75H7.98C5.96895 15.7458 4.03829 14.96 2.59588 13.5586C1.15347 12.1573 0.312273 10.2501 0.25 8.24V7.99C0.25265 5.93631 1.07034 3.96763 2.52345 2.51639C3.97657 1.06514 5.9463 0.249998 8 0.25ZM9.95 8.75H6.05C6.2 11.65 7.22 14.09 7.93 14.25H8C8.68 14.25 9.72 11.88 9.93 9.02L9.95 8.75ZM14.21 8.75H11.45C11.36 10.71 10.92 12.53 10.27 13.83C11.2839 13.4336 12.177 12.7795 12.8609 11.9325C13.5448 11.0855 13.9961 10.0747 14.17 9L14.21 8.75ZM4.54 8.75H1.8C1.93602 9.87388 2.37426 10.9398 3.06807 11.8344C3.76188 12.729 4.6853 13.4186 5.74 13.83C5.05294 12.3531 4.65899 10.757 4.58 9.13L4.55 8.75H4.54ZM5.74 2.17L5.62 2.22C4.59266 2.64311 3.69644 3.33201 3.02336 4.21598C2.35028 5.09995 1.92459 6.14713 1.79 7.25H4.54C4.63 5.42 5.02 3.71 5.6 2.44L5.74 2.17ZM7.99 1.75C7.29 1.75 6.21 4.26 6.05 7.25H9.95C9.8 4.35 8.77 1.91 8.06 1.75H7.99ZM10.27 2.18L10.3 2.23C11.0156 3.80947 11.4066 5.51655 11.45 7.25H14.2C14.0611 6.12971 13.6228 5.06757 12.9312 4.17536C12.2396 3.28315 11.3203 2.59385 10.27 2.18Z" fill="white"/>
</svg>
