<svg width="32" height="32" viewBox="0 0 32 32" fill="none" xmlns="http://www.w3.org/2000/svg">
<path d="M16.0002 0.700195C7.5602 0.700195 0.700195 7.5602 0.700195 16.0002C0.700195 24.4402 7.5602 31.3002 16.0002 31.3002C24.4402 31.3002 31.3002 24.4402 31.3002 16.0002C31.3002 7.5602 24.4402 0.700195 16.0002 0.700195ZM16.0002 28.7002C11.9802 28.7002 8.4002 26.8202 6.0702 23.8902C7.69179 21.7688 9.95341 20.226 12.5202 19.4902C11.595 18.9037 10.833 18.0929 10.305 17.1331C9.77703 16.1733 9.50019 15.0956 9.5002 14.0002C9.5002 12.2763 10.185 10.623 11.404 9.404C12.623 8.18501 14.2763 7.5002 16.0002 7.5002C17.7241 7.5002 19.3774 8.18501 20.5964 9.404C21.8154 10.623 22.5002 12.2763 22.5002 14.0002C22.501 15.0971 22.2245 16.1765 21.6966 17.138C21.1686 18.0996 20.4062 18.9121 19.4802 19.5002C22.0473 20.2354 24.3091 21.7783 25.9302 23.9002C24.7438 25.397 23.2345 26.6062 21.5149 27.4374C19.7953 28.2686 17.9101 28.7003 16.0002 28.7002Z" fill="#951B4A"/>
</svg>
