<svg width="41" height="29" viewBox="0 0 41 29" fill="none" xmlns="http://www.w3.org/2000/svg">
<path d="M37.2683 14.3516C37.239 6.60876 30.3846 0 19.9827 0C9.58074 0 3.44242 7.7037 3.44242 14.2734C3.80017 21.586 7.8601 24.0887 8.72161 25.0272C8.79983 25.7311 8.83892 26.4741 7.58755 28.5467C10.2076 28.1948 10.8724 27.4909 11.6154 26.8652C15.7605 28.8204 16.9728 29.0942 21.9782 28.9769C26.9837 28.8595 37.3074 24.6753 37.2683 14.3516Z" fill="#951B4A"/>
<path d="M2.69824 14.2734C2.81555 10.6757 3.9887 8.75954 3.9887 8.75954C3.9887 8.75954 0 9.69806 0 14.5471C0 19.3961 4.06691 20.3346 4.06691 20.3346C4.06691 20.3346 2.58092 17.871 2.69824 14.2734Z" fill="#951B4A"/>
<path d="M38.0883 14.3516C37.971 10.3237 36.7588 8.75954 36.7588 8.75954C36.7588 8.75954 40.9821 9.58074 40.7866 14.7426C40.5911 19.9045 36.7588 20.3346 36.7588 20.3346C36.7588 20.3346 38.2057 18.3794 38.0883 14.3516Z" fill="#951B4A"/>
<path d="M40.2782 4.37977V10.2455C40.0045 9.81537 39.457 9.18969 38.7922 8.83775V4.37977C38.7922 4.37977 38.8313 3.75409 39.5352 3.75409C40.2391 3.75409 40.2782 4.37977 40.2782 4.37977Z" fill="#951B4A"/>
<path d="M2.03346 8.83775C1.64239 9.07238 1.17313 9.34611 0.547471 10.1673V4.37977C0.547471 4.37977 0.625681 3.75409 1.29047 3.75409C1.95525 3.75409 2.03346 4.37977 2.03346 4.37977V8.83775Z" fill="#951B4A"/>
<path d="M28.0774 22.7983C26.2786 22.7983 16.6588 22.6809 12.8656 22.7592C10.9159 22.7994 9.77627 22.0984 8.46881 19.7481C7.5491 18.0948 7.07802 16.0431 7.07802 14.3516C7.07802 12.7039 7.64767 10.846 8.54634 9.34611C9.97559 6.9607 10.9527 6.45234 12.4354 6.45234C15.251 6.45234 25.0272 6.49144 27.6082 6.49144C30.1891 6.49144 31.2058 7.03891 32.9656 10.793C34.377 13.8041 33.865 16.5806 32.5745 19.3179C31.2841 22.0553 29.8763 22.7983 28.0774 22.7983Z" fill="#E9BDC0"/>
<path d="M14.1948 14.1171C12.943 14.078 11.7707 14.9383 11.4578 14.1171C11.1449 13.2959 12.2392 11.6534 14.1557 11.6535C16.0722 11.6535 17.128 13.335 16.8543 14.078C16.5805 14.821 15.4465 14.1562 14.1948 14.1171Z" fill="#951B4A"/>
<path d="M26.7223 14.1169C25.4706 14.0778 24.2982 14.9381 23.9853 14.1169C23.6724 13.2957 24.7667 11.6533 26.6832 11.6533C28.5997 11.6533 29.6556 13.3349 29.3818 14.0779C29.1081 14.8209 27.974 14.156 26.7223 14.1169Z" fill="#951B4A"/>
<path d="M19.0444 16.4243C19.0444 16.4243 19.4746 17.1673 20.374 17.1673C21.2734 17.1673 21.7818 16.4634 21.7818 16.4634" stroke="#951B4A" stroke-width="5" stroke-linecap="round"/>
</svg>
