<svg width="18" height="18" viewBox="0 0 18 18" fill="none" xmlns="http://www.w3.org/2000/svg">
<path d="M15.7584 3.84956C15.6183 3.78677 15.4818 3.71794 15.3496 3.64332C14.9651 3.423 14.6125 3.1634 14.2995 2.87011C13.5165 2.09352 13.224 1.30568 13.1163 0.754087H13.1206C13.0306 0.296235 13.0678 0 13.0734 0H9.50666V11.9537C9.50666 12.1141 9.50666 12.2728 9.49887 12.4295C9.49887 12.449 9.49671 12.467 9.49541 12.488C9.49541 12.4966 9.49541 12.5056 9.49325 12.5146C9.49325 12.5169 9.49325 12.5191 9.49325 12.5214C9.45565 12.9503 9.29702 13.3646 9.03131 13.7279C8.7656 14.0912 8.40096 14.3923 7.96945 14.6048C7.51973 14.8265 7.01109 14.9428 6.49369 14.9423C4.83188 14.9423 3.48504 13.7678 3.48504 12.3174C3.48504 10.867 4.83188 9.69252 6.49369 9.69252C6.80826 9.69226 7.12089 9.73517 7.41999 9.81963L7.42431 6.67204C6.51634 6.57039 5.59391 6.63293 4.71522 6.85572C3.83653 7.07851 3.02065 7.45672 2.31905 7.96648C1.70428 8.42943 1.18745 8.98181 0.791797 9.59877C0.641235 9.82376 0.0731662 10.7278 0.00437489 12.1951C-0.0388901 13.028 0.249687 13.8908 0.38727 14.2474V14.2549C0.4738 14.4649 0.809103 15.1815 1.35554 15.7856C1.79617 16.2702 2.31675 16.6958 2.90053 17.0489V17.0414L2.90918 17.0489C4.63589 18.0658 6.55036 17.9991 6.55036 17.9991C6.88177 17.9875 7.99195 17.9991 9.25269 17.4813C10.651 16.9072 11.4471 16.0518 11.4471 16.0518C11.9557 15.5408 12.3601 14.9583 12.6429 14.3295C12.9657 13.5942 13.0734 12.7122 13.0734 12.3598V6.01807C13.1167 6.04057 13.693 6.37093 13.693 6.37093C13.693 6.37093 14.5232 6.83216 15.8186 7.13252C16.7479 7.34626 18 7.39126 18 7.39126V4.32241C17.5613 4.36366 16.6705 4.24366 15.7584 3.84956Z" fill="white"/>
</svg>
