<svg width="84" height="81" viewBox="0 0 84 81" fill="none" xmlns="http://www.w3.org/2000/svg">
<path d="M81.7258 40.3629C81.7258 62.1024 64.1024 79.7258 42.3629 79.7258C20.6234 79.7258 3 62.1024 3 40.3629C3 18.6234 20.6234 1 42.3629 1C64.1024 1 81.7258 18.6234 81.7258 40.3629Z" fill="url(#paint0_linear_385_443)"/>
<path d="M72.1609 40.3629C72.1609 56.8199 58.8199 70.1609 42.3629 70.1609C25.9059 70.1609 12.5648 56.8199 12.5648 40.3629C12.5648 23.9059 25.9059 10.5648 42.3629 10.5648C58.8199 10.5648 72.1609 23.9059 72.1609 40.3629Z" fill="white"/>
<path d="M71.0573 40.3629C71.0573 56.2104 58.2104 69.0573 42.3629 69.0573C26.5154 69.0573 13.6685 56.2104 13.6685 40.3629C13.6685 24.5154 26.5154 11.6685 42.3629 11.6685C58.2104 11.6685 71.0573 24.5154 71.0573 40.3629Z" fill="url(#paint1_linear_385_443)"/>
<path d="M70.3215 40.3629C70.3215 55.804 57.804 68.3216 42.3629 68.3216C26.9217 68.3216 14.4042 55.804 14.4042 40.3629C14.4042 24.9217 26.9217 12.4042 42.3629 12.4042C57.804 12.4042 70.3215 24.9217 70.3215 40.3629Z" fill="url(#paint2_linear_385_443)"/>
<path d="M68.1143 40.3016C68.1143 38.0559 67.8198 35.8199 67.2384 33.6507L42.4241 40.3016H68.1143Z" fill="black"/>
<path d="M64.661 27.4367C63.4194 25.2906 61.8736 23.3355 60.0718 21.6323L42.4241 40.3016L64.661 27.4367Z" fill="black"/>
<path d="M54.5226 17.6386C52.3353 16.4709 49.9905 15.6261 47.5611 15.1303L42.4241 40.3016L54.5226 17.6386Z" fill="black"/>
<path d="M40.2679 14.7021C37.7972 14.9102 35.3697 15.4749 33.0608 16.3786L42.4241 40.3016L40.2679 14.7021Z" fill="black"/>
<path d="M27.0174 19.7441C25.0333 21.231 23.2749 22.9974 21.797 24.9882L42.4241 40.3016L27.0174 19.7441Z" fill="black"/>
<path d="M18.4551 31.0569C17.5629 33.3702 17.0102 35.8005 16.8144 38.2722L42.4241 40.3016L18.4551 31.0569Z" fill="black"/>
<path d="M16.959 43.6935C17.2864 46.1512 17.9678 48.5486 18.9821 50.8111L42.4241 40.3016L16.959 43.6935Z" fill="black"/>
<path d="M21.4845 55.1848C22.9209 57.2057 24.6423 59.0081 26.5952 60.5358L42.4241 40.3016L21.4845 55.1848Z" fill="black"/>
<path d="M31.6174 63.6081C33.8668 64.6511 36.2553 65.363 38.7087 65.7216L42.4241 40.3016L31.6174 63.6081Z" fill="black"/>
<path d="M43.1571 65.9812C45.6356 65.9105 48.0907 65.4813 50.4461 64.7071L42.4241 40.3016L43.1571 65.9812Z" fill="black"/>
<path d="M55.885 62.1828C57.9968 60.8837 59.9094 59.2857 61.5634 57.4385L42.4241 40.3016L55.885 62.1828Z" fill="black"/>
<path d="M64.7612 52.9918C65.9859 50.836 66.8922 48.5142 67.4517 46.0987L42.4241 40.3016L64.7612 52.9918Z" fill="black"/>
<path d="M64.6808 40.3016C64.6808 52.5935 54.7162 62.5582 42.4242 62.5582C30.1322 62.5582 20.1676 52.5935 20.1676 40.3016C20.1676 28.0096 30.1322 18.045 42.4242 18.045C54.7162 18.045 64.6808 28.0096 64.6808 40.3016Z" fill="url(#paint3_linear_385_443)"/>
<path d="M63.5455 46.5749C64.0904 44.7225 64.3901 42.8068 64.437 40.8766L42.3636 40.3442L63.5455 46.5749Z" fill="black"/>
<path d="M63.8196 35.1258C63.3166 33.0545 62.5165 31.0669 61.4441 29.225L42.3636 40.3442L63.8196 35.1258Z" fill="black"/>
<path d="M57.8377 24.585C56.3176 23.0913 54.5892 21.8258 52.7065 20.8276L42.3636 40.3442L57.8377 24.585Z" fill="black"/>
<path d="M46.797 18.7056C44.7094 18.278 42.5709 18.155 40.4479 18.3405L42.3636 40.3442L46.797 18.7056Z" fill="black"/>
<path d="M34.6484 19.6507C32.6517 20.3961 30.7733 21.4266 29.0717 22.7102L42.3636 40.3442L34.6484 19.6507Z" fill="black"/>
<path d="M24.8439 26.9055C23.5469 28.5972 22.5016 30.4678 21.7404 32.4591L42.3636 40.3442L24.8439 26.9055Z" fill="black"/>
<path d="M20.5443 36.9659C20.2178 39.0725 20.198 41.2153 20.4854 43.3275L42.3636 40.3442L20.5443 36.9659Z" fill="black"/>
<path d="M21.4874 47.5421C22.1814 49.5574 23.1635 51.4616 24.403 53.1954L42.3636 40.3442L21.4874 47.5421Z" fill="black"/>
<path d="M27.7984 56.9476C29.4 58.3534 31.1966 59.5199 33.1325 60.4107L42.3636 40.3442L27.7984 56.9476Z" fill="black"/>
<path d="M36.7373 61.7038C38.798 62.2466 40.9264 62.488 43.0563 62.4207L42.3636 40.3442L36.7373 61.7038Z" fill="black"/>
<path d="M48.1532 61.6576C50.2096 61.0982 52.1744 60.244 53.9863 59.1215L42.3636 40.3442L48.1532 61.6576Z" fill="black"/>
<path d="M57.7018 56.2292C59.2347 54.748 60.5452 53.0527 61.5926 51.196L42.3636 40.3442L57.7018 56.2292Z" fill="black"/>
<path d="M60.8794 40.3629C60.8794 50.5892 52.5892 58.8794 42.3629 58.8794C32.1365 58.8794 23.8464 50.5892 23.8464 40.3629C23.8464 30.1365 32.1365 21.8464 42.3629 21.8464C52.5892 21.8464 60.8794 30.1365 60.8794 40.3629Z" fill="white"/>
<path d="M59.2853 40.3629C59.2853 49.6411 51.7637 57.1626 42.4855 57.1626C33.2073 57.1626 25.6858 49.6411 25.6858 40.3629C25.6858 31.0846 33.2073 23.5632 42.4855 23.5632C51.7637 23.5632 59.2853 31.0846 59.2853 40.3629Z" fill="black"/>
<path d="M52.1729 40.3629C52.1729 45.7131 47.8357 50.0503 42.4855 50.0503C37.1353 50.0503 32.7981 45.7131 32.7981 40.3629C32.7981 35.0126 37.1353 30.6754 42.4855 30.6754C47.8357 30.6754 52.1729 35.0126 52.1729 40.3629Z" fill="white"/>
<path d="M51.0693 40.3629C51.0693 45.1036 47.2262 48.9467 42.4855 48.9467C37.7448 48.9467 33.9017 45.1036 33.9017 40.3629C33.9017 35.6222 37.7448 31.7791 42.4855 31.7791C47.2262 31.7791 51.0693 35.6222 51.0693 40.3629Z" fill="#D02B6A"/>
<path d="M50.3335 40.3629C50.3335 44.6972 46.8199 48.2109 42.4855 48.2109C38.1511 48.2109 34.6374 44.6972 34.6374 40.3629C34.6374 36.0285 38.1511 32.5148 42.4855 32.5148C46.8199 32.5148 50.3335 36.0285 50.3335 40.3629Z" fill="url(#paint4_linear_385_443)"/>
<path d="M49.7204 40.3629C49.7204 44.3586 46.4812 47.5978 42.4855 47.5978C38.4898 47.5978 35.2506 44.3586 35.2506 40.3629C35.2506 36.3671 38.4898 33.128 42.4855 33.128C46.4812 33.128 49.7204 36.3671 49.7204 40.3629Z" fill="url(#paint5_linear_385_443)"/>
<path d="M45.7964 40.3629C45.7964 42.2592 44.2592 43.7964 42.3629 43.7964C40.4666 43.7964 38.9294 42.2592 38.9294 40.3629C38.9294 38.4666 40.4666 36.9294 42.3629 36.9294C44.2592 36.9294 45.7964 38.4666 45.7964 40.3629Z" fill="white"/>
<path d="M45.5511 40.3629C45.5511 42.1237 44.1237 43.5512 42.3629 43.5512C40.602 43.5512 39.1746 42.1237 39.1746 40.3629C39.1746 38.602 40.602 37.1746 42.3629 37.1746C44.1237 37.1746 45.5511 38.602 45.5511 40.3629Z" fill="url(#paint6_linear_385_443)"/>
<path d="M45.1833 40.3629C45.1833 41.9205 43.9205 43.1833 42.3629 43.1833C40.8052 43.1833 39.5425 41.9205 39.5425 40.3629C39.5425 38.8052 40.8052 37.5425 42.3629 37.5425C43.9205 37.5425 45.1833 38.8052 45.1833 40.3629Z" fill="url(#paint7_linear_385_443)"/>
<path d="M44.2022 40.3629C44.2022 41.3787 43.3787 42.2023 42.3629 42.2023C41.347 42.2023 40.5235 41.3787 40.5235 40.3629C40.5235 39.347 41.347 38.5235 42.3629 38.5235C43.3787 38.5235 44.2022 39.347 44.2022 40.3629Z" fill="white"/>
<path d="M44.0797 40.3629C44.0797 41.311 43.311 42.0796 42.3629 42.0796C41.4147 42.0796 40.6461 41.311 40.6461 40.3629C40.6461 39.4147 41.4147 38.6461 42.3629 38.6461C43.311 38.6461 44.0797 39.4147 44.0797 40.3629Z" fill="url(#paint8_linear_385_443)"/>
<path d="M43.8344 40.3629C43.8344 41.1756 43.1756 41.8344 42.3629 41.8344C41.5502 41.8344 40.8914 41.1756 40.8914 40.3629C40.8914 39.5502 41.5502 38.8914 42.3629 38.8914C43.1756 38.8914 43.8344 39.5502 43.8344 40.3629Z" fill="url(#paint9_linear_385_443)"/>
<path d="M47.0226 36.4389C47.0226 36.9129 46.6384 37.2973 46.1643 37.2973C45.6902 37.2973 45.3059 36.9129 45.3059 36.4389C45.3059 35.9648 45.6902 35.5805 46.1643 35.5805C46.6384 35.5805 47.0226 35.9648 47.0226 36.4389Z" fill="white"/>
<path d="M47.0226 44.5322C47.0226 45.0062 46.6384 45.3905 46.1643 45.3905C45.6902 45.3905 45.3059 45.0062 45.3059 44.5322C45.3059 44.0581 45.6902 43.6738 46.1643 43.6738C46.6384 43.6738 47.0226 44.0581 47.0226 44.5322Z" fill="white"/>
<path d="M39.4199 44.5322C39.4199 45.0062 39.0356 45.3905 38.5615 45.3905C38.0874 45.3905 37.7031 45.0062 37.7031 44.5322C37.7031 44.0581 38.0874 43.6738 38.5615 43.6738C39.0356 43.6738 39.4199 44.0581 39.4199 44.5322Z" fill="white"/>
<path d="M39.4199 36.4389C39.4199 36.9129 39.0356 37.2973 38.5615 37.2973C38.0874 37.2973 37.7031 36.9129 37.7031 36.4389C37.7031 35.9648 38.0874 35.5805 38.5615 35.5805C39.0356 35.5805 39.4199 35.9648 39.4199 36.4389Z" fill="white"/>
<path d="M39.4199 36.4389C39.4199 36.9129 39.0356 37.2973 38.5615 37.2973C38.0874 37.2973 37.7031 36.9129 37.7031 36.4389C37.7031 35.9648 38.0874 35.5805 38.5615 35.5805C39.0356 35.5805 39.4199 35.9648 39.4199 36.4389Z" fill="white"/>
<path d="M39.3381 36.4389C39.3381 36.8678 38.9904 37.2155 38.5615 37.2155C38.1326 37.2155 37.7848 36.8678 37.7848 36.4389C37.7848 36.0099 38.1326 35.6622 38.5615 35.6622C38.9904 35.6622 39.3381 36.0099 39.3381 36.4389Z" fill="url(#paint10_linear_385_443)"/>
<path d="M39.2564 36.4389C39.2564 36.8226 38.9453 37.1338 38.5615 37.1338C38.1777 37.1338 37.8666 36.8226 37.8666 36.4389C37.8666 36.0551 38.1777 35.744 38.5615 35.744C38.9453 35.744 39.2564 36.0551 39.2564 36.4389Z" fill="url(#paint11_linear_385_443)"/>
<path d="M47.0226 36.4389C47.0226 36.9129 46.6384 37.2973 46.1643 37.2973C45.6902 37.2973 45.3059 36.9129 45.3059 36.4389C45.3059 35.9648 45.6902 35.5805 46.1643 35.5805C46.6384 35.5805 47.0226 35.9648 47.0226 36.4389Z" fill="white"/>
<path d="M46.9409 36.4389C46.9409 36.8678 46.5932 37.2155 46.1643 37.2155C45.7354 37.2155 45.3876 36.8678 45.3876 36.4389C45.3876 36.0099 45.7354 35.6622 46.1643 35.6622C46.5932 35.6622 46.9409 36.0099 46.9409 36.4389Z" fill="url(#paint12_linear_385_443)"/>
<path d="M46.8592 36.4389C46.8592 36.8226 46.5481 37.1338 46.1643 37.1338C45.7805 37.1338 45.4694 36.8226 45.4694 36.4389C45.4694 36.0551 45.7805 35.744 46.1643 35.744C46.5481 35.744 46.8592 36.0551 46.8592 36.4389Z" fill="url(#paint13_linear_385_443)"/>
<path d="M47.0226 44.5322C47.0226 45.0062 46.6384 45.3905 46.1643 45.3905C45.6902 45.3905 45.3059 45.0062 45.3059 44.5322C45.3059 44.0581 45.6902 43.6738 46.1643 43.6738C46.6384 43.6738 47.0226 44.0581 47.0226 44.5322Z" fill="white"/>
<path d="M46.9409 44.5322C46.9409 44.9611 46.5932 45.3088 46.1643 45.3088C45.7354 45.3088 45.3876 44.9611 45.3876 44.5322C45.3876 44.1032 45.7354 43.7555 46.1643 43.7555C46.5932 43.7555 46.9409 44.1032 46.9409 44.5322Z" fill="url(#paint14_linear_385_443)"/>
<path d="M46.8592 44.5322C46.8592 44.9159 46.5481 45.227 46.1643 45.227C45.7805 45.227 45.4694 44.9159 45.4694 44.5322C45.4694 44.1484 45.7805 43.8373 46.1643 43.8373C46.5481 43.8373 46.8592 44.1484 46.8592 44.5322Z" fill="url(#paint15_linear_385_443)"/>
<path d="M39.4199 44.5322C39.4199 45.0062 39.0356 45.3905 38.5615 45.3905C38.0874 45.3905 37.7031 45.0062 37.7031 44.5322C37.7031 44.0581 38.0874 43.6738 38.5615 43.6738C39.0356 43.6738 39.4199 44.0581 39.4199 44.5322Z" fill="white"/>
<path d="M39.3381 44.5322C39.3381 44.9611 38.9904 45.3088 38.5615 45.3088C38.1326 45.3088 37.7848 44.9611 37.7848 44.5322C37.7848 44.1032 38.1326 43.7555 38.5615 43.7555C38.9904 43.7555 39.3381 44.1032 39.3381 44.5322Z" fill="url(#paint16_linear_385_443)"/>
<path d="M39.2564 44.5322C39.2564 44.9159 38.9453 45.227 38.5615 45.227C38.1777 45.227 37.8666 44.9159 37.8666 44.5322C37.8666 44.1484 38.1777 43.8373 38.5615 43.8373C38.9453 43.8373 39.2564 44.1484 39.2564 44.5322Z" fill="url(#paint17_linear_385_443)"/>
<path d="M84 33.75V47.25H78.4V33.75H84Z" fill="url(#paint18_linear_385_443)"/>
<path d="M5.6 33.75L5.6 47.25H1.83588e-06L0 33.75H5.6Z" fill="url(#paint19_linear_385_443)"/>
<path d="M35 2.36041e-06L49 0V5.4L35 5.4V2.36041e-06Z" fill="url(#paint20_linear_385_443)"/>
<path d="M35 75.6H49V81H35V75.6Z" fill="url(#paint21_linear_385_443)"/>
<path d="M14.9377 8.80104L27.0621 2.05104L29.8621 6.72758L17.7377 13.4776L14.9377 8.80104Z" fill="url(#paint22_linear_385_443)"/>
<path d="M54.1377 74.2727L66.2621 67.5227L69.0621 72.1993L56.9377 78.9493L54.1377 74.2727Z" fill="url(#paint23_linear_385_443)"/>
<path d="M2.12683 26.0956L9.12683 14.4043L13.9766 17.1043L6.97657 28.7956L2.12683 26.0956Z" fill="url(#paint24_linear_385_443)"/>
<path d="M70.0232 63.8959L77.0232 52.2046L81.873 54.9046L74.873 66.5959L70.0232 63.8959Z" fill="url(#paint25_linear_385_443)"/>
<path d="M9.12666 66.5956L2.12666 54.9043L6.9764 52.2043L13.9764 63.8956L9.12666 66.5956Z" fill="url(#paint26_linear_385_443)"/>
<path d="M77.0234 28.7959L70.0234 17.1046L74.8732 14.4046L81.8732 26.0959L77.0234 28.7959Z" fill="url(#paint27_linear_385_443)"/>
<path d="M27.0618 78.949L14.9374 72.199L17.7374 67.5224L29.8618 74.2724L27.0618 78.949Z" fill="url(#paint28_linear_385_443)"/>
<path d="M66.2623 13.4776L54.1379 6.72759L56.9379 2.05106L69.0623 8.80105L66.2623 13.4776Z" fill="url(#paint29_linear_385_443)"/>
<defs>
<linearGradient id="paint0_linear_385_443" x1="42" y1="0" x2="42" y2="81" gradientUnits="userSpaceOnUse">
<stop stop-color="#666666"/>
<stop offset="0.155"/>
</linearGradient>
<linearGradient id="paint1_linear_385_443" x1="42" y1="0" x2="42" y2="81" gradientUnits="userSpaceOnUse">
<stop stop-color="#999999"/>
<stop offset="1" stop-color="white"/>
</linearGradient>
<linearGradient id="paint2_linear_385_443" x1="42" y1="0" x2="42" y2="81" gradientUnits="userSpaceOnUse">
<stop stop-color="white"/>
<stop offset="0.84" stop-color="#999999"/>
</linearGradient>
<linearGradient id="paint3_linear_385_443" x1="42" y1="0" x2="42" y2="81" gradientUnits="userSpaceOnUse">
<stop offset="0.285" stop-color="white"/>
<stop offset="1" stop-color="#999999"/>
</linearGradient>
<linearGradient id="paint4_linear_385_443" x1="42" y1="0" x2="42" y2="81" gradientUnits="userSpaceOnUse">
<stop offset="0.405" stop-color="#2F0917"/>
<stop offset="0.585" stop-color="#951B4A"/>
</linearGradient>
<linearGradient id="paint5_linear_385_443" x1="42" y1="0" x2="42" y2="81" gradientUnits="userSpaceOnUse">
<stop offset="0.055" stop-color="#D02B6A"/>
<stop offset="0.62" stop-color="#6A1636"/>
</linearGradient>
<linearGradient id="paint6_linear_385_443" x1="42" y1="0" x2="42" y2="81" gradientUnits="userSpaceOnUse">
<stop offset="0.435" stop-color="#999999"/>
<stop offset="0.67" stop-color="white"/>
</linearGradient>
<linearGradient id="paint7_linear_385_443" x1="42" y1="0" x2="42" y2="81" gradientUnits="userSpaceOnUse">
<stop stop-color="white"/>
<stop offset="0.4" stop-color="#F5F5F5"/>
<stop offset="0.575" stop-color="#999999"/>
</linearGradient>
<linearGradient id="paint8_linear_385_443" x1="42" y1="0" x2="42" y2="81" gradientUnits="userSpaceOnUse">
<stop stop-color="#333333"/>
<stop offset="1" stop-color="#8F8F8F"/>
</linearGradient>
<linearGradient id="paint9_linear_385_443" x1="42" y1="0" x2="42" y2="81" gradientUnits="userSpaceOnUse">
<stop stop-color="#8F8F8F"/>
<stop offset="1" stop-color="#333333"/>
</linearGradient>
<linearGradient id="paint10_linear_385_443" x1="42" y1="0" x2="42" y2="81" gradientUnits="userSpaceOnUse">
<stop stop-color="#999999"/>
<stop offset="1" stop-color="white"/>
</linearGradient>
<linearGradient id="paint11_linear_385_443" x1="37.9439" y1="44.0747" x2="37.9439" y2="45.5046" gradientUnits="userSpaceOnUse">
<stop stop-color="white"/>
<stop offset="1" stop-color="#999999"/>
</linearGradient>
<linearGradient id="paint12_linear_385_443" x1="42" y1="0" x2="42" y2="81" gradientUnits="userSpaceOnUse">
<stop stop-color="#999999"/>
<stop offset="1" stop-color="white"/>
</linearGradient>
<linearGradient id="paint13_linear_385_443" x1="37.9439" y1="44.0747" x2="37.9439" y2="45.5046" gradientUnits="userSpaceOnUse">
<stop stop-color="white"/>
<stop offset="1" stop-color="#999999"/>
</linearGradient>
<linearGradient id="paint14_linear_385_443" x1="42" y1="0" x2="42" y2="81" gradientUnits="userSpaceOnUse">
<stop stop-color="#999999"/>
<stop offset="1" stop-color="white"/>
</linearGradient>
<linearGradient id="paint15_linear_385_443" x1="37.9439" y1="44.0747" x2="37.9439" y2="45.5046" gradientUnits="userSpaceOnUse">
<stop stop-color="white"/>
<stop offset="1" stop-color="#999999"/>
</linearGradient>
<linearGradient id="paint16_linear_385_443" x1="42" y1="0" x2="42" y2="81" gradientUnits="userSpaceOnUse">
<stop stop-color="#999999"/>
<stop offset="1" stop-color="white"/>
</linearGradient>
<linearGradient id="paint17_linear_385_443" x1="37.9439" y1="44.0747" x2="37.9439" y2="45.5046" gradientUnits="userSpaceOnUse">
<stop stop-color="white"/>
<stop offset="1" stop-color="#999999"/>
</linearGradient>
<linearGradient id="paint18_linear_385_443" x1="42" y1="0" x2="42" y2="81" gradientUnits="userSpaceOnUse">
<stop stop-color="#666666"/>
<stop offset="0.175"/>
</linearGradient>
<linearGradient id="paint19_linear_385_443" x1="42" y1="0" x2="42" y2="81" gradientUnits="userSpaceOnUse">
<stop stop-color="#666666"/>
<stop offset="0.175"/>
</linearGradient>
<linearGradient id="paint20_linear_385_443" x1="42" y1="0" x2="42" y2="81" gradientUnits="userSpaceOnUse">
<stop stop-color="#666666"/>
<stop offset="0.175"/>
</linearGradient>
<linearGradient id="paint21_linear_385_443" x1="42" y1="0" x2="42" y2="81" gradientUnits="userSpaceOnUse">
<stop stop-color="#666666"/>
<stop offset="0.175"/>
</linearGradient>
<linearGradient id="paint22_linear_385_443" x1="42" y1="0" x2="42" y2="81" gradientUnits="userSpaceOnUse">
<stop stop-color="#666666"/>
<stop offset="0.175"/>
</linearGradient>
<linearGradient id="paint23_linear_385_443" x1="42" y1="0" x2="42" y2="81" gradientUnits="userSpaceOnUse">
<stop stop-color="#666666"/>
<stop offset="0.175"/>
</linearGradient>
<linearGradient id="paint24_linear_385_443" x1="42" y1="0" x2="42" y2="81" gradientUnits="userSpaceOnUse">
<stop stop-color="#666666"/>
<stop offset="0.175"/>
</linearGradient>
<linearGradient id="paint25_linear_385_443" x1="42" y1="0" x2="42" y2="81" gradientUnits="userSpaceOnUse">
<stop stop-color="#666666"/>
<stop offset="0.175"/>
</linearGradient>
<linearGradient id="paint26_linear_385_443" x1="42" y1="0" x2="42" y2="81" gradientUnits="userSpaceOnUse">
<stop stop-color="#666666"/>
<stop offset="0.175"/>
</linearGradient>
<linearGradient id="paint27_linear_385_443" x1="42" y1="0" x2="42" y2="81" gradientUnits="userSpaceOnUse">
<stop stop-color="#666666"/>
<stop offset="0.175"/>
</linearGradient>
<linearGradient id="paint28_linear_385_443" x1="42" y1="0" x2="42" y2="81" gradientUnits="userSpaceOnUse">
<stop stop-color="#666666"/>
<stop offset="0.175"/>
</linearGradient>
<linearGradient id="paint29_linear_385_443" x1="42" y1="0" x2="42" y2="81" gradientUnits="userSpaceOnUse">
<stop stop-color="#666666"/>
<stop offset="0.175"/>
</linearGradient>
</defs>
</svg>
