<?xml version="1.0" encoding="UTF-8"?>
<svg xmlns="http://www.w3.org/2000/svg" xmlns:xlink="http://www.w3.org/1999/xlink" width="3873" height="3873" viewBox="0 0 3873 3873">
<defs>
<clipPath id="clip-0">
<path clip-rule="evenodd" d="M 1936.5 0 C 3006 0 3873 867 3873 1936.5 C 3873 3006 3006 3873 1936.5 3873 C 867 3873 0 3006 0 1936.5 C 0 867 867 0 1936.5 0 "/>
</clipPath>
<linearGradient id="linear-pattern-0" gradientUnits="userSpaceOnUse" x1="-0.500008" y1="0" x2="1.500007" y2="0" gradientTransform="matrix(2072.1, -1778.48, 1778.48, 2072.1, 900.452, 2825.74)">
<stop offset="0" stop-color="rgb(95.684814%, 2.745056%, 40.783691%)" stop-opacity="1"/>
<stop offset="0.25" stop-color="rgb(95.684814%, 2.745056%, 40.783691%)" stop-opacity="1"/>
<stop offset="0.253906" stop-color="rgb(94.86084%, 3.482056%, 41.343689%)" stop-opacity="1"/>
<stop offset="0.257812" stop-color="rgb(94.038391%, 4.220581%, 41.905212%)" stop-opacity="1"/>
<stop offset="0.261719" stop-color="rgb(93.214417%, 4.959106%, 42.46521%)" stop-opacity="1"/>
<stop offset="0.265625" stop-color="rgb(92.390442%, 5.697632%, 43.026733%)" stop-opacity="1"/>
<stop offset="0.269531" stop-color="rgb(91.566467%, 6.436157%, 43.588257%)" stop-opacity="1"/>
<stop offset="0.273437" stop-color="rgb(90.742493%, 7.176208%, 44.14978%)" stop-opacity="1"/>
<stop offset="0.277344" stop-color="rgb(89.918518%, 7.914734%, 44.709778%)" stop-opacity="1"/>
<stop offset="0.28125" stop-color="rgb(89.096069%, 8.653259%, 45.271301%)" stop-opacity="1"/>
<stop offset="0.285156" stop-color="rgb(88.272095%, 9.391785%, 45.832825%)" stop-opacity="1"/>
<stop offset="0.289062" stop-color="rgb(87.44812%, 10.13031%, 46.394348%)" stop-opacity="1"/>
<stop offset="0.292969" stop-color="rgb(86.624146%, 10.868835%, 46.954346%)" stop-opacity="1"/>
<stop offset="0.296875" stop-color="rgb(85.800171%, 11.607361%, 47.515869%)" stop-opacity="1"/>
<stop offset="0.300781" stop-color="rgb(84.976196%, 12.345886%, 48.075867%)" stop-opacity="1"/>
<stop offset="0.304688" stop-color="rgb(84.152222%, 13.084412%, 48.63739%)" stop-opacity="1"/>
<stop offset="0.308594" stop-color="rgb(83.328247%, 13.822937%, 49.198914%)" stop-opacity="1"/>
<stop offset="0.3125" stop-color="rgb(82.504272%, 14.561462%, 49.760437%)" stop-opacity="1"/>
<stop offset="0.316406" stop-color="rgb(81.680298%, 15.299988%, 50.320435%)" stop-opacity="1"/>
<stop offset="0.320312" stop-color="rgb(80.857849%, 16.038513%, 50.881958%)" stop-opacity="1"/>
<stop offset="0.324219" stop-color="rgb(80.033875%, 16.777039%, 51.441956%)" stop-opacity="1"/>
<stop offset="0.328125" stop-color="rgb(79.2099%, 17.515564%, 52.003479%)" stop-opacity="1"/>
<stop offset="0.332031" stop-color="rgb(78.385925%, 18.254089%, 52.565002%)" stop-opacity="1"/>
<stop offset="0.335938" stop-color="rgb(77.561951%, 18.992615%, 53.126526%)" stop-opacity="1"/>
<stop offset="0.339844" stop-color="rgb(76.737976%, 19.73114%, 53.686523%)" stop-opacity="1"/>
<stop offset="0.34375" stop-color="rgb(75.914001%, 20.469666%, 54.248047%)" stop-opacity="1"/>
<stop offset="0.347656" stop-color="rgb(75.090027%, 21.208191%, 54.80957%)" stop-opacity="1"/>
<stop offset="0.351562" stop-color="rgb(74.266052%, 21.946716%, 55.371094%)" stop-opacity="1"/>
<stop offset="0.355469" stop-color="rgb(73.442078%, 22.685242%, 55.931091%)" stop-opacity="1"/>
<stop offset="0.359375" stop-color="rgb(72.619629%, 23.425293%, 56.492615%)" stop-opacity="1"/>
<stop offset="0.363281" stop-color="rgb(71.795654%, 24.163818%, 57.052612%)" stop-opacity="1"/>
<stop offset="0.367187" stop-color="rgb(70.97168%, 24.902344%, 57.614136%)" stop-opacity="1"/>
<stop offset="0.371094" stop-color="rgb(70.147705%, 25.640869%, 58.175659%)" stop-opacity="1"/>
<stop offset="0.375" stop-color="rgb(69.32373%, 26.379395%, 58.737183%)" stop-opacity="1"/>
<stop offset="0.378906" stop-color="rgb(68.499756%, 27.11792%, 59.29718%)" stop-opacity="1"/>
<stop offset="0.382812" stop-color="rgb(67.675781%, 27.856445%, 59.858704%)" stop-opacity="1"/>
<stop offset="0.386719" stop-color="rgb(66.851807%, 28.594971%, 60.418701%)" stop-opacity="1"/>
<stop offset="0.390625" stop-color="rgb(66.027832%, 29.333496%, 60.980225%)" stop-opacity="1"/>
<stop offset="0.394531" stop-color="rgb(65.203857%, 30.072021%, 61.541748%)" stop-opacity="1"/>
<stop offset="0.398438" stop-color="rgb(64.381409%, 30.810547%, 62.103271%)" stop-opacity="1"/>
<stop offset="0.402344" stop-color="rgb(63.557434%, 31.549072%, 62.663269%)" stop-opacity="1"/>
<stop offset="0.40625" stop-color="rgb(62.733459%, 32.287598%, 63.224792%)" stop-opacity="1"/>
<stop offset="0.410156" stop-color="rgb(61.909485%, 33.026123%, 63.786316%)" stop-opacity="1"/>
<stop offset="0.414062" stop-color="rgb(61.08551%, 33.764648%, 64.347839%)" stop-opacity="1"/>
<stop offset="0.417969" stop-color="rgb(60.261536%, 34.503174%, 64.907837%)" stop-opacity="1"/>
<stop offset="0.421875" stop-color="rgb(59.437561%, 35.241699%, 65.46936%)" stop-opacity="1"/>
<stop offset="0.425781" stop-color="rgb(58.613586%, 35.980225%, 66.029358%)" stop-opacity="1"/>
<stop offset="0.429688" stop-color="rgb(57.791138%, 36.71875%, 66.590881%)" stop-opacity="1"/>
<stop offset="0.433594" stop-color="rgb(56.967163%, 37.457275%, 67.152405%)" stop-opacity="1"/>
<stop offset="0.4375" stop-color="rgb(56.143188%, 38.195801%, 67.713928%)" stop-opacity="1"/>
<stop offset="0.441406" stop-color="rgb(55.319214%, 38.934326%, 68.273926%)" stop-opacity="1"/>
<stop offset="0.445312" stop-color="rgb(54.495239%, 39.674377%, 68.835449%)" stop-opacity="1"/>
<stop offset="0.449219" stop-color="rgb(53.671265%, 40.412903%, 69.395447%)" stop-opacity="1"/>
<stop offset="0.453125" stop-color="rgb(52.84729%, 41.151428%, 69.95697%)" stop-opacity="1"/>
<stop offset="0.457031" stop-color="rgb(52.023315%, 41.889954%, 70.518494%)" stop-opacity="1"/>
<stop offset="0.460938" stop-color="rgb(51.199341%, 42.628479%, 71.080017%)" stop-opacity="1"/>
<stop offset="0.464844" stop-color="rgb(50.505066%, 43.251038%, 71.556091%)" stop-opacity="1"/>
<stop offset="0.46875" stop-color="rgb(49.812317%, 43.873596%, 72.033691%)" stop-opacity="1"/>
<stop offset="0.472656" stop-color="rgb(49.320984%, 44.314575%, 72.37854%)" stop-opacity="1"/>
<stop offset="0.476562" stop-color="rgb(48.831177%, 44.75708%, 72.723389%)" stop-opacity="1"/>
<stop offset="0.480469" stop-color="rgb(48.34137%, 45.198059%, 73.068237%)" stop-opacity="1"/>
<stop offset="0.484375" stop-color="rgb(47.851562%, 45.640564%, 73.413086%)" stop-opacity="1"/>
<stop offset="0.488281" stop-color="rgb(47.360229%, 46.081543%, 73.757935%)" stop-opacity="1"/>
<stop offset="0.492188" stop-color="rgb(46.870422%, 46.524048%, 74.102783%)" stop-opacity="1"/>
<stop offset="0.496094" stop-color="rgb(46.379089%, 46.965027%, 74.447632%)" stop-opacity="1"/>
<stop offset="0.5" stop-color="rgb(45.889282%, 47.407532%, 74.79248%)" stop-opacity="1"/>
<stop offset="0.503906" stop-color="rgb(45.399475%, 47.850037%, 75.137329%)" stop-opacity="1"/>
<stop offset="0.507812" stop-color="rgb(44.909668%, 48.292542%, 75.482178%)" stop-opacity="1"/>
<stop offset="0.511719" stop-color="rgb(44.418335%, 48.733521%, 75.827026%)" stop-opacity="1"/>
<stop offset="0.515625" stop-color="rgb(43.928528%, 49.176025%, 76.171875%)" stop-opacity="1"/>
<stop offset="0.519531" stop-color="rgb(43.437195%, 49.617004%, 76.516724%)" stop-opacity="1"/>
<stop offset="0.523438" stop-color="rgb(42.947388%, 50.059509%, 76.861572%)" stop-opacity="1"/>
<stop offset="0.527344" stop-color="rgb(42.457581%, 50.500488%, 77.206421%)" stop-opacity="1"/>
<stop offset="0.53125" stop-color="rgb(41.967773%, 50.942993%, 77.55127%)" stop-opacity="1"/>
<stop offset="0.535156" stop-color="rgb(41.47644%, 51.383972%, 77.896118%)" stop-opacity="1"/>
<stop offset="0.539062" stop-color="rgb(40.986633%, 51.826477%, 78.240967%)" stop-opacity="1"/>
<stop offset="0.542969" stop-color="rgb(40.4953%, 52.267456%, 78.585815%)" stop-opacity="1"/>
<stop offset="0.546875" stop-color="rgb(40.005493%, 52.709961%, 78.930664%)" stop-opacity="1"/>
<stop offset="0.550781" stop-color="rgb(39.515686%, 53.15094%, 79.275513%)" stop-opacity="1"/>
<stop offset="0.554688" stop-color="rgb(39.025879%, 53.593445%, 79.620361%)" stop-opacity="1"/>
<stop offset="0.558594" stop-color="rgb(38.534546%, 54.034424%, 79.96521%)" stop-opacity="1"/>
<stop offset="0.5625" stop-color="rgb(38.044739%, 54.476929%, 80.310059%)" stop-opacity="1"/>
<stop offset="0.566406" stop-color="rgb(37.553406%, 54.919434%, 80.654907%)" stop-opacity="1"/>
<stop offset="0.570312" stop-color="rgb(37.063599%, 55.361938%, 80.999756%)" stop-opacity="1"/>
<stop offset="0.574219" stop-color="rgb(36.573792%, 55.802917%, 81.344604%)" stop-opacity="1"/>
<stop offset="0.578125" stop-color="rgb(36.083984%, 56.245422%, 81.689453%)" stop-opacity="1"/>
<stop offset="0.582031" stop-color="rgb(35.592651%, 56.686401%, 82.034302%)" stop-opacity="1"/>
<stop offset="0.585938" stop-color="rgb(35.102844%, 57.128906%, 82.37915%)" stop-opacity="1"/>
<stop offset="0.589844" stop-color="rgb(34.611511%, 57.569885%, 82.723999%)" stop-opacity="1"/>
<stop offset="0.59375" stop-color="rgb(34.121704%, 58.01239%, 83.068848%)" stop-opacity="1"/>
<stop offset="0.597656" stop-color="rgb(33.631897%, 58.453369%, 83.413696%)" stop-opacity="1"/>
<stop offset="0.601562" stop-color="rgb(33.14209%, 58.895874%, 83.758545%)" stop-opacity="1"/>
<stop offset="0.605469" stop-color="rgb(32.650757%, 59.336853%, 84.103394%)" stop-opacity="1"/>
<stop offset="0.609375" stop-color="rgb(32.16095%, 59.779358%, 84.448242%)" stop-opacity="1"/>
<stop offset="0.613281" stop-color="rgb(31.669617%, 60.220337%, 84.793091%)" stop-opacity="1"/>
<stop offset="0.617188" stop-color="rgb(31.17981%, 60.662842%, 85.137939%)" stop-opacity="1"/>
<stop offset="0.621094" stop-color="rgb(30.688477%, 61.103821%, 85.482788%)" stop-opacity="1"/>
<stop offset="0.625" stop-color="rgb(30.198669%, 61.546326%, 85.827637%)" stop-opacity="1"/>
<stop offset="0.628906" stop-color="rgb(29.708862%, 61.988831%, 86.172485%)" stop-opacity="1"/>
<stop offset="0.632812" stop-color="rgb(29.219055%, 62.431335%, 86.517334%)" stop-opacity="1"/>
<stop offset="0.636719" stop-color="rgb(28.727722%, 62.872314%, 86.862183%)" stop-opacity="1"/>
<stop offset="0.640625" stop-color="rgb(28.237915%, 63.314819%, 87.207031%)" stop-opacity="1"/>
<stop offset="0.644531" stop-color="rgb(27.746582%, 63.755798%, 87.55188%)" stop-opacity="1"/>
<stop offset="0.648437" stop-color="rgb(27.256775%, 64.198303%, 87.896729%)" stop-opacity="1"/>
<stop offset="0.652344" stop-color="rgb(26.766968%, 64.639282%, 88.241577%)" stop-opacity="1"/>
<stop offset="0.65625" stop-color="rgb(26.277161%, 65.081787%, 88.586426%)" stop-opacity="1"/>
<stop offset="0.660156" stop-color="rgb(25.785828%, 65.522766%, 88.931274%)" stop-opacity="1"/>
<stop offset="0.664062" stop-color="rgb(25.296021%, 65.965271%, 89.276123%)" stop-opacity="1"/>
<stop offset="0.667969" stop-color="rgb(24.804688%, 66.40625%, 89.620972%)" stop-opacity="1"/>
<stop offset="0.671875" stop-color="rgb(24.31488%, 66.848755%, 89.96582%)" stop-opacity="1"/>
<stop offset="0.675781" stop-color="rgb(23.825073%, 67.289734%, 90.310669%)" stop-opacity="1"/>
<stop offset="0.679688" stop-color="rgb(23.335266%, 67.732239%, 90.655518%)" stop-opacity="1"/>
<stop offset="0.683594" stop-color="rgb(22.843933%, 68.173218%, 91.000366%)" stop-opacity="1"/>
<stop offset="0.6875" stop-color="rgb(22.354126%, 68.615723%, 91.345215%)" stop-opacity="1"/>
<stop offset="0.691406" stop-color="rgb(21.862793%, 69.058228%, 91.690063%)" stop-opacity="1"/>
<stop offset="0.695312" stop-color="rgb(21.372986%, 69.500732%, 92.034912%)" stop-opacity="1"/>
<stop offset="0.699219" stop-color="rgb(20.883179%, 69.941711%, 92.379761%)" stop-opacity="1"/>
<stop offset="0.703125" stop-color="rgb(20.393372%, 70.384216%, 92.724609%)" stop-opacity="1"/>
<stop offset="0.707031" stop-color="rgb(19.902039%, 70.825195%, 93.069458%)" stop-opacity="1"/>
<stop offset="0.710938" stop-color="rgb(19.412231%, 71.2677%, 93.414307%)" stop-opacity="1"/>
<stop offset="0.714844" stop-color="rgb(18.920898%, 71.708679%, 93.759155%)" stop-opacity="1"/>
<stop offset="0.71875" stop-color="rgb(18.431091%, 72.151184%, 94.104004%)" stop-opacity="1"/>
<stop offset="0.722656" stop-color="rgb(17.941284%, 72.592163%, 94.448853%)" stop-opacity="1"/>
<stop offset="0.726562" stop-color="rgb(17.451477%, 73.034668%, 94.793701%)" stop-opacity="1"/>
<stop offset="0.730469" stop-color="rgb(16.960144%, 73.475647%, 95.13855%)" stop-opacity="1"/>
<stop offset="0.734375" stop-color="rgb(16.470337%, 73.918152%, 95.483398%)" stop-opacity="1"/>
<stop offset="0.738281" stop-color="rgb(15.979004%, 74.359131%, 95.828247%)" stop-opacity="1"/>
<stop offset="0.742187" stop-color="rgb(15.489197%, 74.801636%, 96.173096%)" stop-opacity="1"/>
<stop offset="0.746094" stop-color="rgb(14.99939%, 75.242615%, 96.516418%)" stop-opacity="1"/>
<stop offset="0.75" stop-color="rgb(14.509583%, 75.68512%, 96.861267%)" stop-opacity="1"/>
<stop offset="1" stop-color="rgb(14.509583%, 75.68512%, 96.861267%)" stop-opacity="1"/>
</linearGradient>
</defs>
<g clip-path="url(#clip-0)">
<path fill-rule="nonzero" fill="url(#linear-pattern-0)" d="M -1914.109375 1642.878906 L 1642.878906 5787.109375 L 5787.109375 2230.121094 L 2230.121094 -1914.109375 Z M -1914.109375 1642.878906 "/>
</g>
<path fill-rule="evenodd" fill="rgb(100%, 100%, 99.609375%)" fill-opacity="1" d="M 2711.398438 910.300781 L 2711.398438 1208.101562 L 2964.898438 1208.101562 Z M 2711.398438 910.300781 "/>
<path fill-rule="evenodd" fill="rgb(100%, 100%, 99.609375%)" fill-opacity="1" d="M 1364.601562 1366.300781 C 1369.199219 1373.699219 1371.398438 1382.800781 1371.398438 1393.699219 C 1371.398438 1403.5 1368.699219 1412.800781 1363.199219 1421.300781 C 1357.699219 1429.898438 1350 1436.300781 1340 1440.5 C 1330 1444.699219 1317.5 1446.800781 1302.601562 1446.800781 C 1280.898438 1446.800781 1264.199219 1441.800781 1252.5 1431.800781 C 1240.898438 1421.800781 1233.898438 1407.101562 1231.699219 1387.898438 L 1265.5 1384.601562 C 1267.5 1396 1271.601562 1404.300781 1277.898438 1409.601562 C 1284.101562 1414.898438 1292.5 1417.601562 1303 1417.601562 C 1314.199219 1417.601562 1322.601562 1415.199219 1328.199219 1410.5 C 1333.898438 1405.800781 1336.699219 1400.300781 1336.699219 1393.898438 C 1336.699219 1389.800781 1335.5 1386.398438 1333.101562 1383.5 C 1330.699219 1380.601562 1326.601562 1378.101562 1320.601562 1376.101562 C 1316.601562 1374.699219 1307.300781 1372.199219 1292.800781 1368.601562 C 1274.199219 1364 1261.199219 1358.300781 1253.699219 1351.601562 C 1243.101562 1342.199219 1237.898438 1330.601562 1237.898438 1317 C 1237.898438 1308.199219 1240.398438 1300.101562 1245.300781 1292.398438 C 1250.300781 1284.800781 1257.398438 1279 1266.699219 1275 C 1276.101562 1271 1287.300781 1269 1300.5 1269 C 1322.101562 1269 1338.300781 1273.699219 1349.199219 1283.199219 C 1360.101562 1292.699219 1365.800781 1305.300781 1366.398438 1321.101562 L 1331.699219 1322.601562 C 1330.199219 1313.800781 1327 1307.398438 1322.101562 1303.601562 C 1317.199219 1299.699219 1309.898438 1297.800781 1300.101562 1297.800781 C 1290 1297.800781 1282.101562 1299.800781 1276.398438 1304 C 1272.699219 1306.601562 1270.898438 1310.199219 1270.898438 1314.601562 C 1270.898438 1318.699219 1272.601562 1322.199219 1276.101562 1325 C 1280.5 1328.699219 1291.101562 1332.5 1308 1336.5 C 1324.898438 1340.5 1337.398438 1344.601562 1345.5 1348.898438 C 1353.601562 1353.101562 1360 1358.898438 1364.601562 1366.300781 Z M 1543 1271.800781 L 1481.5 1443.699219 L 1444.398438 1443.699219 L 1383 1271.800781 L 1420.601562 1271.800781 L 1464.101562 1399 L 1506.199219 1271.800781 Z M 1603.898438 1313 C 1594.898438 1322.601562 1590.5 1336.898438 1590.5 1355.800781 C 1590.5 1376.199219 1595 1391.5 1604.101562 1401.699219 C 1613.101562 1411.898438 1625 1417 1639.699219 1417 C 1647 1417 1654.300781 1415.601562 1661.601562 1412.699219 C 1668.898438 1409.898438 1675.199219 1406.398438 1680.398438 1402.300781 L 1680.398438 1380.5 L 1640.699219 1380.5 L 1640.699219 1351.5 L 1715.5 1351.5 L 1715.5 1420 C 1708.199219 1427 1697.699219 1433.199219 1683.898438 1438.601562 C 1670.101562 1443.898438 1656.101562 1446.601562 1642 1446.601562 C 1624 1446.601562 1608.300781 1442.800781 1595 1435.300781 C 1581.601562 1427.699219 1571.601562 1417 1564.898438 1402.898438 C 1558.199219 1388.898438 1554.800781 1373.601562 1554.800781 1357.101562 C 1554.800781 1339.199219 1558.601562 1323.300781 1566 1309.398438 C 1573.5 1295.5 1584.5 1284.800781 1599 1277.398438 C 1610 1271.699219 1623.699219 1268.800781 1640.101562 1268.800781 C 1661.398438 1268.800781 1678.101562 1273.300781 1690.101562 1282.199219 C 1702.101562 1291.199219 1709.800781 1303.5 1713.300781 1319.300781 L 1678.800781 1325.699219 C 1676.398438 1317.300781 1671.800781 1310.601562 1665.101562 1305.699219 C 1658.398438 1300.800781 1650.101562 1298.398438 1640.101562 1298.398438 C 1624.898438 1298.601562 1612.898438 1303.398438 1603.898438 1313 Z M 1451.898438 1564.699219 L 1985.699219 1564.699219 C 2021.5 1564.699219 2050.800781 1535.5 2050.800781 1499.601562 L 2050.800781 1216.101562 C 2050.800781 1180.300781 2021.601562 1151 1985.699219 1151 L 1103.199219 1151 C 1046.300781 1151 994.601562 1174.300781 957.101562 1211.699219 C 876.101562 1292.699219 876.101562 1422.898438 957.101562 1503.898438 C 994.601562 1541.398438 1046.300781 1564.601562 1103.199219 1564.601562 L 1451.898438 1564.601562 L 1451.898438 1564.699219 "/>
<path fill-rule="evenodd" fill="rgb(100%, 100%, 99.609375%)" fill-opacity="1" d="M 2399.800781 1957.300781 C 2413 1929.699219 2432.199219 1909.199219 2457.199219 1895.800781 C 2482.199219 1882.5 2510.898438 1875.800781 2543.5 1875.800781 C 2567.101562 1875.800781 2588.5 1879.601562 2607.601562 1887.300781 C 2626.699219 1894.898438 2641.699219 1905.601562 2652.5 1919.300781 C 2663.398438 1933 2671.601562 1950.800781 2677.300781 1972.800781 L 2638.300781 1983.5 C 2633.398438 1966.800781 2627.300781 1953.699219 2620 1944.199219 C 2612.699219 1934.699219 2602.300781 1927.101562 2588.699219 1921.398438 C 2575.199219 1915.699219 2560.199219 1912.800781 2543.699219 1912.800781 C 2523.898438 1912.800781 2506.800781 1915.800781 2492.398438 1921.898438 C 2477.898438 1927.898438 2466.398438 1935.800781 2457.5 1945.601562 C 2448.699219 1955.398438 2441.800781 1966.199219 2436.898438 1977.898438 C 2428.601562 1998.101562 2424.398438 2020 2424.398438 2043.699219 C 2424.398438 2072.898438 2429.398438 2097.199219 2439.5 2116.800781 C 2449.5 2136.398438 2464.199219 2151 2483.300781 2160.5 C 2502.5 2170 2522.800781 2174.800781 2544.300781 2174.800781 C 2563.101562 2174.800781 2581.398438 2171.101562 2599.199219 2163.898438 C 2617.101562 2156.699219 2630.601562 2149.101562 2639.800781 2140.800781 L 2639.800781 2080 L 2543.699219 2080 L 2543.699219 2041.699219 L 2682.199219 2041.5 L 2682.199219 2162.800781 C 2661 2179.800781 2639 2192.5 2616.398438 2201.101562 C 2593.800781 2209.601562 2570.601562 2213.898438 2546.800781 2213.898438 C 2514.699219 2213.898438 2485.5 2207 2459.300781 2193.300781 C 2433 2179.601562 2413.300781 2159.699219 2399.898438 2133.699219 C 2386.5 2107.699219 2379.800781 2078.601562 2379.800781 2046.5 C 2379.800781 2014.601562 2386.5 1984.898438 2399.800781 1957.300781 Z M 1958.5 1887.5 C 1977 1895.300781 1991.199219 1906.800781 2001.199219 1921.898438 C 2011.101562 1937 2016.5 1954.199219 2017.300781 1973.398438 L 1975.800781 1976.5 C 1973.5 1955.898438 1966 1940.199219 1953.101562 1929.699219 C 1940.199219 1919.101562 1921.300781 1913.898438 1896.199219 1913.898438 C 1870 1913.898438 1851 1918.699219 1839 1928.300781 C 1827.101562 1937.898438 1821 1949.5 1821 1962.898438 C 1821 1974.699219 1825.300781 1984.398438 1833.699219 1991.898438 C 1842.101562 1999.5 1863.800781 2007.300781 1898.898438 2015.199219 C 1934.101562 2023.199219 1958.199219 2030.101562 1971.300781 2036.101562 C 1990.300781 2044.898438 2004.398438 2056 2013.5 2069.398438 C 2022.601562 2082.898438 2027 2098.398438 2027 2115.898438 C 2027 2133.300781 2022.101562 2149.699219 2012.101562 2165.101562 C 2002.101562 2180.5 1987.800781 2192.398438 1969.199219 2201 C 1950.601562 2209.5 1929.5 2213.800781 1906.300781 2213.800781 C 1876.699219 2213.800781 1851.898438 2209.5 1831.898438 2200.898438 C 1811.898438 2192.300781 1796.199219 2179.398438 1784.800781 2162 C 1773.5 2144.699219 1767.398438 2125.101562 1766.898438 2103.199219 L 1807.699219 2099.601562 C 1809.601562 2116 1814.101562 2129.398438 1821.199219 2139.898438 C 1828.300781 2150.398438 1839.199219 2158.898438 1854.101562 2165.300781 C 1868.898438 2171.800781 1885.699219 2175 1904.300781 2175 C 1920.800781 2175 1935.398438 2172.601562 1948 2167.699219 C 1960.601562 2162.800781 1970.101562 2156.101562 1976.199219 2147.5 C 1982.398438 2138.898438 1985.5 2129.601562 1985.5 2119.5 C 1985.5 2109.199219 1982.5 2100.300781 1976.5 2092.601562 C 1970.601562 2084.898438 1960.699219 2078.5 1947.101562 2073.300781 C 1938.300781 2069.898438 1918.898438 2064.5 1888.898438 2057.300781 C 1858.898438 2050.101562 1837.800781 2043.300781 1825.800781 2036.898438 C 1810.199219 2028.800781 1798.601562 2018.601562 1790.898438 2006.5 C 1783.300781 1994.398438 1779.5 1980.800781 1779.5 1965.800781 C 1779.5 1949.398438 1784.101562 1933.898438 1793.5 1919.601562 C 1802.898438 1905.199219 1816.601562 1894.300781 1834.5 1886.898438 C 1852.5 1879.5 1872.5 1875.800781 1894.5 1875.800781 C 1918.601562 1875.800781 1939.898438 1879.699219 1958.5 1887.5 Z M 1690.300781 2783.300781 C 1690.300781 2771.300781 1700 2761.601562 1712 2761.601562 L 2716.601562 2761.601562 C 2728.601562 2761.601562 2738.300781 2771.300781 2738.300781 2783.300781 C 2738.300781 2795.300781 2728.601562 2805 2716.601562 2805 L 1711.898438 2805 C 1700 2805 1690.300781 2795.300781 1690.300781 2783.300781 Z M 1711.898438 2609.199219 L 2716.5 2609.199219 C 2728.5 2609.199219 2738.199219 2618.898438 2738.199219 2630.898438 C 2738.199219 2642.898438 2728.5 2652.601562 2716.5 2652.601562 L 1711.898438 2652.601562 C 1699.898438 2652.601562 1690.199219 2642.898438 1690.199219 2630.898438 C 1690.300781 2618.898438 1700 2609.199219 1711.898438 2609.199219 Z M 1711.898438 2456.800781 L 2716.5 2456.800781 C 2728.5 2456.800781 2738.199219 2466.5 2738.199219 2478.5 C 2738.199219 2490.5 2728.5 2500.199219 2716.5 2500.199219 L 1711.898438 2500.199219 C 1699.898438 2500.199219 1690.199219 2490.5 1690.199219 2478.5 C 1690.300781 2466.5 1700 2456.800781 1711.898438 2456.800781 Z M 2184.699219 2118.898438 C 2191.601562 2137.898438 2197.300781 2155.800781 2201.800781 2172.398438 C 2206.898438 2154.601562 2212.800781 2136.800781 2219.5 2118.898438 L 2307.800781 1881.398438 L 2351.898438 1881.398438 L 2223.898438 2208.300781 L 2179.5 2208.300781 L 2052.800781 1881.398438 L 2099.699219 1881.398438 Z M 1985.699219 1608 L 1451.898438 1608 L 1451.898438 2954.898438 C 1451.898438 2966.898438 1461.601562 2976.601562 1473.601562 2976.601562 L 2955 2976.601562 C 2967 2976.601562 2976.699219 2966.898438 2976.699219 2954.898438 L 2976.699219 1251.398438 L 2689.800781 1251.398438 C 2677.800781 1251.398438 2668.101562 1241.699219 2668.101562 1229.699219 L 2668.101562 896.398438 L 1473.601562 896.398438 C 1461.601562 896.398438 1451.898438 906.101562 1451.898438 918.101562 L 1451.898438 1107.699219 L 1985.699219 1107.699219 C 2045.5 1107.699219 2094.101562 1156.398438 2094.101562 1216.101562 L 2094.101562 1499.601562 C 2094.101562 1559.398438 2045.398438 1608 1985.699219 1608 "/>
</svg>
