<svg width="18" height="18" viewBox="0 0 18 18" fill="none" xmlns="http://www.w3.org/2000/svg">
<path d="M15.3 2.619C13.617 0.927 11.376 0 8.991 0C4.077 0 0.0720002 4.005 0.0720002 8.919C0.0720002 10.494 0.486 12.024 1.26 13.374L0 18L4.725 16.758C6.03 17.469 7.497 17.847 8.991 17.847C13.905 17.847 17.91 13.842 17.91 8.928C17.91 6.543 16.983 4.302 15.3 2.619ZM8.991 16.335C7.659 16.335 6.354 15.975 5.211 15.3L4.941 15.138L2.133 15.876L2.88 13.14L2.7 12.861C1.962 11.682 1.566 10.314 1.566 8.919C1.566 4.833 4.896 1.503 8.982 1.503C10.962 1.503 12.825 2.277 14.22 3.681C15.624 5.085 16.389 6.948 16.389 8.928C16.407 13.014 13.077 16.335 8.991 16.335ZM13.059 10.791C12.834 10.683 11.736 10.143 11.538 10.062C11.331 9.99 11.187 9.954 11.034 10.17C10.881 10.395 10.458 10.899 10.332 11.043C10.206 11.196 10.071 11.214 9.846 11.097C9.621 10.989 8.901 10.746 8.055 9.99C7.389 9.396 6.948 8.667 6.813 8.442C6.687 8.217 6.795 8.1 6.912 7.983C7.011 7.884 7.137 7.722 7.245 7.596C7.353 7.47 7.398 7.371 7.47 7.227C7.542 7.074 7.506 6.948 7.452 6.84C7.398 6.732 6.948 5.634 6.768 5.184C6.588 4.752 6.399 4.806 6.264 4.797C6.129 4.797 5.985 4.797 5.832 4.797C5.679 4.797 5.445 4.851 5.238 5.076C5.04 5.301 4.464 5.841 4.464 6.939C4.464 8.037 5.265 9.099 5.373 9.243C5.481 9.396 6.948 11.646 9.18 12.609C9.711 12.843 10.125 12.978 10.449 13.077C10.98 13.248 11.466 13.221 11.853 13.167C12.285 13.104 13.176 12.627 13.356 12.105C13.545 11.583 13.545 11.142 13.482 11.043C13.419 10.944 13.284 10.899 13.059 10.791Z" fill="white"/>
</svg>
